<?xml version="1.0" encoding="UTF-8" standalone="no"?>
<svg
   xmlns:dc="http://purl.org/dc/elements/1.1/"
   xmlns:cc="http://creativecommons.org/ns#"
   xmlns:rdf="http://www.w3.org/1999/02/22-rdf-syntax-ns#"
   xmlns:svg="http://www.w3.org/2000/svg"
   xmlns="http://www.w3.org/2000/svg"
   xmlns:sodipodi="http://sodipodi.sourceforge.net/DTD/sodipodi-0.dtd"
   xmlns:inkscape="http://www.inkscape.org/namespaces/inkscape"
   width="76.005936mm"
   height="17.77174mm"
   version="1.1"
   viewBox="0 0 76.005936 17.77174"
   id="svg60"
   sodipodi:docname="bsw-logo.svg"
   inkscape:version="1.0.2 (1.0.2+r75+1)">
  <metadata
     id="metadata66">
    <rdf:RDF>
      <cc:Work
         rdf:about="">
        <dc:format>image/svg+xml</dc:format>
        <dc:type
           rdf:resource="http://purl.org/dc/dcmitype/StillImage" />
        <dc:title></dc:title>
      </cc:Work>
    </rdf:RDF>
  </metadata>
  <defs
     id="defs64" />
  <sodipodi:namedview
     pagecolor="#ffffff"
     bordercolor="#666666"
     borderopacity="1"
     objecttolerance="10"
     gridtolerance="10"
     guidetolerance="10"
     inkscape:pageopacity="0"
     inkscape:pageshadow="2"
     inkscape:window-width="1360"
     inkscape:window-height="707"
     id="namedview62"
     showgrid="false"
     fit-margin-top="0"
     fit-margin-left="0"
     fit-margin-right="0"
     fit-margin-bottom="0"
     inkscape:zoom="1.38148"
     inkscape:cx="242.42239"
     inkscape:cy="43.946066"
     inkscape:window-x="0"
     inkscape:window-y="0"
     inkscape:window-maximized="1"
     inkscape:current-layer="g56" />
  <g
     aria-label="B"
     id="text893"
     style="font-style:normal;font-variant:normal;font-weight:bold;font-stretch:normal;font-size:5.64441px;line-height:1.25;font-family:serif;-inkscape-font-specification:'serif Bold';letter-spacing:0px;word-spacing:0px;fill:#050505;fill-opacity:1;stroke-width:0.117592"
     transform="translate(0.4910667,-7.7e-4)">
    <path
       d="M -0.4909925,17.698475 V 17.364992 H 0.03541489 V 13.917161 H -0.4909925 v -0.333483 h 2.4391128 q 0.7524043,0 1.1299844,0.253557 0.3775802,0.253558 0.3775802,0.763429 0,0.366556 -0.2618257,0.581528 -0.2590696,0.214973 -0.7716967,0.270094 0.6201135,0.05788 0.9508406,0.330727 0.3307272,0.27285 0.3307272,0.724844 0,0.611845 -0.4630181,0.901232 -0.4602619,0.289386 -1.4441752,0.289386 z m 1.5874903,-2.397772 h 0.3610439 q 0.4740422,0 0.7027952,-0.170876 0.2287529,-0.173631 0.2287529,-0.529163 0,-0.358288 -0.2232408,-0.520895 Q 1.9453642,13.917161 1.4575417,13.917161 H 1.0964978 Z m 0,2.064289 h 0.3941166 q 0.5264074,0 0.7799649,-0.209461 0.2535574,-0.20946 0.2535574,-0.647674 0,-0.440969 -0.2563135,-0.658698 Q 2.0115096,15.63143 1.4906144,15.63143 H 1.0964978 Z"
       style="font-style:normal;font-variant:normal;font-weight:bold;font-stretch:normal;font-family:serif;-inkscape-font-specification:'serif Bold';fill:#050505;fill-opacity:1;stroke-width:0.117592"
       id="path903" />
  </g>
  <g
     transform="translate(-9.6199333,-132.27077)"
     fill="#000d1d"
     stroke-width="0.26458"
     id="g58">
    <g
       transform="translate(9.5489903,-193.83)"
       aria-label="BSW"
       id="g8">
      <path
         d="m 0.070943,335.52 v -0.75034 h 1.1844 v -7.7577 h -1.1844 v -0.75034 h 5.488 q 1.6929,0 2.5425,0.57051 0.84956,0.5705 0.84956,1.7177 0,0.82476 -0.58911,1.3084 -0.58291,0.48369 -1.7363,0.60771 1.3953,0.13023 2.1394,0.74414 0.74414,0.61392 0.74414,1.6309 0,1.3767 -1.0418,2.0278 -1.0356,0.65113 -3.2494,0.65113 z m 3.5719,-5.395 h 0.81235 q 1.0666,0 1.5813,-0.38447 0.5147,-0.39068 0.5147,-1.1906 0,-0.80615 -0.50229,-1.172 -0.49609,-0.36587 -1.5937,-0.36587 h -0.81235 z m 0,4.6447 h 0.88677 q 1.1844,0 1.7549,-0.47129 0.5705,-0.47129 0.57051,-1.4573 0,-0.99219 -0.57671,-1.4821 -0.57671,-0.48989 -1.7487,-0.48989 h -0.88677 z"
         id="path2" />
      <path
         d="m 11.196,335.08 v -2.1952 h 0.78755 q 0.17983,1.0418 0.84956,1.5565 0.66973,0.5147 1.8542,0.5147 0.96118,0 1.4635,-0.36587 0.50232,-0.36587 0.5023,-1.0728 0,-0.55811 -0.34106,-0.86817 -0.34106,-0.31006 -1.4077,-0.57671 l -1.3891,-0.34106 q -1.3581,-0.34727 -1.91,-0.96118 -0.5519,-0.62012 -0.5519,-1.7611 0,-1.3767 0.91157,-2.1394 0.91777,-0.76894 2.5673,-0.76894 0.81235,0 1.6867,0.13642 0.88057,0.13643 1.8231,0.40928 v 2.0464 h -0.78755 q -0.17983,-0.95498 -0.78755,-1.3953 -0.60772,-0.44648 -1.7301,-0.44648 -0.91777,0 -1.3891,0.32246 -0.46509,0.31626 -0.46509,0.94878 0,0.57671 0.32246,0.88056 0.32246,0.29766 1.5813,0.62012 l 1.3891,0.34107 q 1.2898,0.32246 1.8666,1.0046 0.58291,0.68212 0.58291,1.879 0,1.4015 -0.96738,2.1332 -0.96738,0.72554 -2.8463,0.72554 -0.90537,0 -1.7983,-0.15503 -0.89297,-0.15503 -1.8169,-0.47129 z"
         id="path4" />
      <path
         d="m 30.215,335.52 h -1.5999 l -2.096,-6.7407 -2.096,6.7407 h -1.5999 l -2.6417,-8.508 h -0.89917 v -0.75034 h 4.3904 v 0.75034 h -0.99219 l 1.7673,5.6865 1.9968,-6.4368 h 1.7611 l 2.034,6.5422 1.8045,-5.7919 h -1.1038 v -0.75034 h 2.8649 v 0.75034 h -0.94878 z"
         id="path6" />
    </g>
    <g
       transform="translate(10.324,-193.83)"
       aria-label="Brain Stimulated Wellness"
       id="g56">
      <path
         d="m 6.319,340.85 v 0.73312 H 6.02686 Q 6.01308,341.36539 5.90559,341.2579 5.7981,341.15042 5.5914,341.15042 q -0.37483,0 -0.57602,0.25907 -0.19844,0.25907 -0.19844,0.74414 v 1.3394 h 0.58704 v 0.29214 h -1.5517 v -0.29214 h 0.45751 v -2.3482 H 3.82472 v -0.28938 h 0.99219 v 0.52089 q 0.14883,-0.30592 0.38309,-0.45199 0.23427,-0.14883 0.57051,-0.14883 0.12402,0 0.25907,0.0193 0.1378,0.0193 0.28939,0.0551 z"
         id="path12" />
      <path
         d="m 8.5679,342.87 v -0.62011 H 7.91471 q -0.37758,0 -0.56224,0.16261 -0.18466,0.1626 -0.18466,0.49884 0,0.30593 0.18741,0.48507 0.18741,0.17915 0.50712,0.17915 0.31695,0 0.50987,-0.19568 0.19568,-0.19568 0.19568,-0.50988 z m 0.50712,-0.9095 v 1.5379 h 0.452 v 0.29214 H 8.56791 v -0.31695 q -0.16812,0.20395 -0.38861,0.30042 -0.22049,0.0965 -0.51539,0.0965 -0.48783,0 -0.77446,-0.25907 -0.28663,-0.25907 -0.28663,-0.70005 0,-0.45475 0.32797,-0.70555 0.32797,-0.2508 0.92604,-0.2508 H 8.5679 v -0.2012 q 0,-0.33348 -0.20395,-0.51538 -0.20119,-0.18466 -0.56775,-0.18466 -0.30317,0 -0.48231,0.1378 -0.17914,0.13781 -0.22324,0.4079 H 6.82882 v -0.59255 q 0.26458,-0.113 0.51263,-0.16812 0.2508,-0.0579 0.48783,-0.0579 0.60909,0 0.92604,0.30317 0.3197,0.30041 0.3197,0.87643 z"
         id="path14" />
      <path
         d="m 10.233,339.95 q 0,-0.12678 0.09095,-0.22048 0.09371,-0.0937 0.22324,-0.0937 0.12678,0 0.21773,0.0937 0.09371,0.0937 0.09371,0.22048 0,0.12954 -0.09095,0.22049 -0.09095,0.0909 -0.22049,0.0909 -0.12954,0 -0.22324,-0.0909 Q 10.233,340.07949 10.233,339.95 Z m 0.64768,3.5471 h 0.47956 v 0.29214 h -1.4717 v -0.29214 h 0.48507 v -2.3427 H 9.88854 v -0.2949 h 0.99219 z"
         id="path16" />
      <path
         d="m 11.724,343.79 v -0.29214 h 0.45751 v -2.3427 h -0.48507 v -0.2949 h 0.99219 v 0.52089 q 0.14056,-0.29765 0.3638,-0.44924 0.226,-0.15158 0.52365,-0.15158 0.48507,0 0.71382,0.27836 0.22875,0.27837 0.22875,0.86817 v 1.571 h 0.452 V 343.79 h -1.4001 v -0.29214 h 0.43822 v -1.4111 q 0,-0.53744 -0.13229,-0.73587 -0.13229,-0.2012 -0.46578,-0.2012 -0.35278,0 -0.53744,0.25907 -0.18466,0.25632 -0.18466,0.74966 v 1.3394 h 0.44097 v 0.29214 z"
         id="path18" />
      <path
         d="m 21.406,341.15 h -0.44648 v -0.2949 H 21.406 v -0.90951 h 0.50987 v 0.90951 h 0.9536 v 0.2949 h -0.9536 v 1.8604 q 0,0.37207 0.07166,0.4768 0.07166,0.10473 0.26458,0.10473 0.19844,0 0.28939,-0.11576 0.09095,-0.11851 0.09646,-0.38034 h 0.38309 q -0.02205,0.39963 -0.21773,0.58429 -0.19568,0.18466 -0.59531,0.18466 -0.43822,0 -0.62012,-0.19293 -0.1819,-0.19568 -0.1819,-0.66145 z"
         id="path22" />
      <path
         d="m 23.616,339.95 q 0,-0.12678 0.09095,-0.22048 0.09371,-0.0937 0.22324,-0.0937 0.12678,0 0.21773,0.0937 0.09371,0.0937 0.09371,0.22048 0,0.12954 -0.09095,0.22049 -0.09095,0.0909 -0.22049,0.0909 -0.12954,0 -0.22324,-0.0909 Q 23.616,340.07949 23.616,339.95 Z m 0.64768,3.5471 h 0.47956 v 0.29214 h -1.4717 v -0.29214 h 0.48507 v -2.3427 h -0.48507 v -0.2949 h 0.99219 z"
         id="path24" />
      <path
         d="m 27.8,341.43 q 0.14607,-0.32246 0.37207,-0.48507 0.22876,-0.16536 0.53192,-0.16536 0.46026,0 0.68626,0.28663 0.226,0.28388 0.226,0.8599 v 1.571 h 0.45751 v 0.29214 h -1.4056 v -0.29214 h 0.44097 v -1.5131 q 0,-0.44924 -0.13229,-0.63941 -0.13229,-0.19016 -0.43822,-0.19016 -0.339,0 -0.51814,0.25631 -0.17639,0.25632 -0.17639,0.7469 v 1.3394 h 0.44097 v 0.29214 h -1.3891 v -0.29214 h 0.44097 v -1.5324 q 0,-0.43821 -0.13229,-0.62287 -0.13229,-0.18741 -0.43822,-0.18741 -0.339,0 -0.51814,0.25631 -0.17639,0.25632 -0.17639,0.7469 v 1.3394 h 0.44097 v 0.29214 h -1.4056 v -0.29214 h 0.45751 v -2.3482 H 25.0797 v -0.28938 h 0.99219 v 0.52089 q 0.14056,-0.29214 0.35829,-0.44648 0.21773,-0.15434 0.49334,-0.15434 0.34175,0 0.57051,0.17088 0.22875,0.16812 0.30592,0.47955 z"
         id="path26" />
      <path
         d="m 32.232,340.86 h 0.94809 v 2.6376 h 0.47956 v 0.29214 h -0.98668 v -0.51814 q -0.14056,0.29214 -0.3638,0.44648 -0.22324,0.15159 -0.51814,0.15159 -0.48783,0 -0.71934,-0.27561 -0.22875,-0.27836 -0.22875,-0.87092 v -1.5682 h -0.45751 v -0.2949 h 0.96738 v 1.706 q 0,0.53467 0.12954,0.73311 0.13229,0.19844 0.46853,0.19844 0.35278,0 0.53743,-0.25907 0.18465,-0.25907 0.18466,-0.75241 v -1.3312 H 32.232 Z"
         id="path28" />
      <path
         d="m 35.029,343.5 h 0.47956 v 0.29214 h -1.4745 V 343.5 h 0.48782 v -3.7042 h -0.48782 v -0.29214 H 35.029 Z"
         id="path30" />
      <path
         d="m 37.926,342.87 v -0.62011 h -0.65319 q -0.37758,0 -0.56224,0.16261 -0.18466,0.1626 -0.18466,0.49884 0,0.30593 0.18741,0.48507 0.18741,0.17915 0.50712,0.17915 0.31695,0 0.50987,-0.19568 0.19568,-0.19568 0.19568,-0.50988 z m 0.50712,-0.9095 v 1.5379 h 0.452 v 0.29214 h -0.95911 v -0.31695 q -0.16812,0.20395 -0.38861,0.30042 -0.22049,0.0965 -0.51539,0.0965 -0.48782,0 -0.77446,-0.25907 -0.28664,-0.25907 -0.28663,-0.70005 0,-0.45475 0.32797,-0.70555 0.32797,-0.2508 0.92604,-0.2508 H 37.926 v -0.2012 q 0,-0.33348 -0.20395,-0.51538 -0.20119,-0.18466 -0.56775,-0.18466 -0.30317,0 -0.48231,0.1378 -0.17914,0.13781 -0.22324,0.4079 h -0.26183 v -0.59255 q 0.26458,-0.113 0.51263,-0.16812 0.2508,-0.0579 0.48782,-0.0579 0.60909,0 0.92604,0.30317 0.3197,0.30041 0.3197,0.87643 z"
         id="path32" />
      <path
         d="m 39.651,341.15 h -0.44648 v -0.2949 H 39.651 v -0.90951 h 0.50987 v 0.90951 h 0.9536 v 0.2949 h -0.9536 v 1.8604 q 0,0.37207 0.07166,0.4768 0.07166,0.10473 0.26458,0.10473 0.19844,0 0.28939,-0.11576 0.09095,-0.11851 0.09646,-0.38034 h 0.38309 q -0.02205,0.39963 -0.21773,0.58429 -0.19568,0.18466 -0.59531,0.18466 -0.43822,0 -0.62012,-0.19293 -0.1819,-0.19568 -0.1819,-0.66145 z"
         id="path34" />
      <path
         d="m 44.372,342.38 h -2.1856 v 0.022 q 0,0.59256 0.22324,0.89573 0.22324,0.30041 0.6587,0.30041 0.33348,0 0.5457,-0.17364 0.21497,-0.17638 0.30041,-0.52089 h 0.4079 q -0.12127,0.48231 -0.44924,0.72484 -0.32522,0.24254 -0.85714,0.24254 -0.64217,0 -1.0335,-0.42168 -0.38861,-0.42444 -0.38861,-1.1245 0,-0.69453 0.3831,-1.119 0.38309,-0.42443 1.006,-0.42443 0.66421,0 1.0197,0.41065 0.35553,0.4079 0.36931,1.1879 z m -0.59807,-0.29214 q -0.01654,-0.51263 -0.21773,-0.7717 -0.19844,-0.26183 -0.57326,-0.26183 -0.35002,0 -0.55122,0.26183 -0.20119,0.26182 -0.24529,0.7717 z"
         id="path36" />
      <path
         d="m 47.616,343.5 h 0.48507 v 0.29214 h -0.99219 v -0.45751 q -0.14883,0.27561 -0.38034,0.4079 -0.22875,0.12954 -0.56775,0.12954 -0.54019,0 -0.8847,-0.42719 -0.34175,-0.42995 -0.34175,-1.119 0,-0.68905 0.34175,-1.1162 0.34175,-0.42715 0.8847,-0.42719 0.339,0 0.56775,0.13229 0.23151,0.12954 0.38034,0.40514 v -1.5241 h -0.47956 v -0.29214 h 0.98667 z m -0.50712,-1.028 v -0.28938 q 0,-0.52642 -0.20395,-0.80478 -0.20119,-0.27836 -0.58704,-0.27836 -0.39136,0 -0.59256,0.30868 -0.19844,0.30868 -0.19844,0.91777 0,0.60634 0.19844,0.91777 0.20119,0.31144 0.59256,0.31144 0.38585,0 0.58704,-0.27561 0.20395,-0.27836 0.20395,-0.80753 z"
         id="path38" />
      <path
         d="m 58.919559,342.38 h -2.1856 v 0.022 q 0,0.59256 0.22324,0.89573 0.22324,0.30041 0.6587,0.30041 0.33348,0 0.5457,-0.17364 0.21497,-0.17638 0.30041,-0.52089 h 0.4079 q -0.12127,0.48231 -0.44924,0.72484 -0.32522,0.24254 -0.85714,0.24254 -0.64216,0 -1.0335,-0.42168 -0.38861,-0.42444 -0.38861,-1.1245 0,-0.69453 0.38309,-1.119 0.38309,-0.42443 1.006,-0.42443 0.66421,0 1.0197,0.41065 0.35553,0.4079 0.36931,1.1879 z m -0.59807,-0.29214 q -0.01654,-0.51263 -0.21773,-0.7717 -0.19844,-0.26183 -0.57326,-0.26183 -0.35002,0 -0.55122,0.26183 -0.20119,0.26182 -0.24529,0.7717 z"
         id="path42" />
      <path
         d="m 60.358559,343.5 h 0.47956 v 0.29214 h -1.4745 V 343.5 h 0.48782 v -3.7042 h -0.48782 v -0.29214 h 0.99494 z"
         id="path44" />
      <path
         d="m 62.166559,343.5 h 0.47956 v 0.29214 h -1.4745 V 343.5 h 0.48782 v -3.7042 h -0.48782 v -0.29214 h 0.99494 z"
         id="path46" />
      <path
         d="m 63.048559,343.79 v -0.29214 h 0.45751 v -2.3427 h -0.48507 v -0.2949 h 0.99219 v 0.52089 q 0.14056,-0.29765 0.3638,-0.44924 0.226,-0.15158 0.52365,-0.15158 0.48507,0 0.71382,0.27836 0.22875,0.27837 0.22875,0.86817 v 1.571 h 0.452 V 343.79 h -1.4001 v -0.29214 h 0.43822 v -1.4111 q 0,-0.53744 -0.13229,-0.73587 -0.13229,-0.2012 -0.46578,-0.2012 -0.35278,0 -0.53744,0.25907 -0.18466,0.25632 -0.18466,0.74966 v 1.3394 h 0.44097 v 0.29214 z"
         id="path48" />
      <path
         d="m 69.513559,342.38 h -2.1856 v 0.022 q 0,0.59256 0.22324,0.89573 0.22324,0.30041 0.6587,0.30041 0.33348,0 0.5457,-0.17364 0.21497,-0.17638 0.30041,-0.52089 h 0.4079 q -0.12127,0.48231 -0.44924,0.72484 -0.32522,0.24254 -0.85714,0.24254 -0.64216,0 -1.0335,-0.42168 -0.38861,-0.42444 -0.38861,-1.1245 0,-0.69453 0.38309,-1.119 0.38309,-0.42443 1.006,-0.42443 0.66421,0 1.0197,0.41065 0.35553,0.4079 0.36931,1.1879 z m -0.59807,-0.29214 q -0.01654,-0.51263 -0.21773,-0.7717 -0.19844,-0.26183 -0.57326,-0.26183 -0.35002,0 -0.55122,0.26183 -0.20119,0.26182 -0.24529,0.7717 z"
         id="path50" />
      <path
         d="m 70.112559,343.63 v -0.6835 h 0.29214 q 0.01102,0.32797 0.20395,0.49058 0.19568,0.16261 0.57602,0.16261 0.34175,0 0.5209,-0.12678 0.17914,-0.12954 0.17914,-0.37483 0,-0.19292 -0.13229,-0.31143 -0.12954,-0.11852 -0.55122,-0.25356 l -0.36656,-0.12403 q -0.37758,-0.12126 -0.54846,-0.30316 -0.16812,-0.18191 -0.16812,-0.46303 0,-0.40238 0.2949,-0.63114 0.2949,-0.22875 0.8158,-0.22875 0.23151,0 0.48782,0.0606 0.25631,0.0606 0.52917,0.17639 v 0.63941 h -0.29214 q -0.01103,-0.28387 -0.19844,-0.44373 -0.18741,-0.15985 -0.50987,-0.15985 -0.3197,0 -0.48507,0.113 -0.16261,0.113 -0.16261,0.339 0,0.18465 0.12402,0.29765 0.12402,0.11025 0.49609,0.226 l 0.40239,0.12402 q 0.41617,0.12954 0.59807,0.32522 0.18466,0.19293 0.18466,0.49885 0,0.41617 -0.3197,0.65595 -0.31695,0.23702 -0.87643,0.23702 -0.28388,0 -0.55397,-0.0606 -0.2701,-0.0606 -0.54019,-0.18191 z"
         id="path52" />
      <path
         d="m 73.011559,343.63 v -0.6835 h 0.29214 q 0.01102,0.32797 0.20395,0.49058 0.19568,0.16261 0.57602,0.16261 0.34175,0 0.5209,-0.12678 0.17914,-0.12954 0.17914,-0.37483 0,-0.19292 -0.13229,-0.31143 -0.12954,-0.11852 -0.55121,-0.25356 l -0.36656,-0.12403 q -0.37758,-0.12126 -0.54846,-0.30316 -0.16812,-0.18191 -0.16812,-0.46303 0,-0.40238 0.2949,-0.63114 0.2949,-0.22875 0.8158,-0.22875 0.23151,0 0.48783,0.0606 0.25631,0.0606 0.52917,0.17639 v 0.63941 h -0.29214 q -0.01102,-0.28387 -0.19844,-0.44373 -0.18741,-0.15985 -0.50987,-0.15985 -0.3197,0 -0.48507,0.113 -0.16261,0.113 -0.16261,0.339 0,0.18465 0.12402,0.29765 0.12402,0.11025 0.49609,0.226 l 0.40239,0.12402 q 0.41617,0.12954 0.59807,0.32522 0.18466,0.19293 0.18466,0.49885 0,0.41617 -0.3197,0.65595 -0.31695,0.23702 -0.87643,0.23702 -0.28388,0 -0.55397,-0.0606 -0.27009,-0.0606 -0.54019,-0.18191 z"
         id="path54" />
    </g>
  </g>
  <g
     aria-label="S"
     id="text897"
     style="font-style:normal;font-variant:normal;font-weight:bold;font-stretch:normal;font-size:5.64441px;line-height:1.25;font-family:serif;-inkscape-font-specification:'serif Bold';letter-spacing:0px;word-spacing:0px;fill:#050505;fill-opacity:1;stroke-width:0.117592"
     transform="translate(0.4910667,-7.7e-4)">
    <path
       d="m 17.422999,17.47572 v -0.975645 h 0.350019 q 0.07993,0.463018 0.37758,0.691771 0.297655,0.228753 0.824062,0.228753 0.427189,0 0.65043,-0.162608 0.223241,-0.162607 0.223241,-0.476798 0,-0.248046 -0.151583,-0.385848 -0.151583,-0.137803 -0.625626,-0.256314 l -0.617357,-0.151583 q -0.603577,-0.15434 -0.848866,-0.42719 -0.24529,-0.275606 -0.24529,-0.78272 0,-0.611846 0.405141,-0.950841 0.407897,-0.341751 1.141009,-0.341751 0.361044,0 0.749648,0.06063 0.39136,0.06063 0.810281,0.1819 v 0.909499 h -0.350019 q -0.07993,-0.424433 -0.35002,-0.620113 -0.270094,-0.198436 -0.76894,-0.198436 -0.407897,0 -0.617358,0.143315 -0.206704,0.140559 -0.206704,0.421677 0,0.256314 0.143315,0.39136 0.143315,0.132291 0.702795,0.275606 l 0.617358,0.151584 q 0.57326,0.143315 0.829573,0.446481 0.25907,0.303167 0.25907,0.835086 0,0.62287 -0.429945,0.948085 -0.429946,0.322459 -1.265032,0.322459 -0.402384,0 -0.799257,-0.0689 -0.396872,-0.0689 -0.807525,-0.209459 z"
       style="font-style:normal;font-variant:normal;font-weight:bold;font-stretch:normal;font-family:serif;-inkscape-font-specification:'serif Bold';fill:#050505;fill-opacity:1;stroke-width:0.117592"
       id="path906" />
  </g>
  <g
     aria-label="W"
     id="text901"
     style="font-style:normal;font-variant:normal;font-weight:bold;font-stretch:normal;font-size:5.64441px;line-height:1.25;font-family:serif;-inkscape-font-specification:'serif Bold';letter-spacing:0px;word-spacing:0px;fill:#050505;fill-opacity:1;stroke-width:0.117592"
     transform="translate(0.67082282,-7.7e-4)">
    <path
       d="m 54.764746,17.708536 h -0.711064 l -0.931548,-2.995837 -0.931548,2.995837 h -0.711064 l -1.174081,-3.781314 h -0.399629 v -0.333483 h 1.951291 v 0.333483 h -0.44097 l 0.785477,2.527307 0.887451,-2.86079 h 0.782721 l 0.903988,2.907643 0.802013,-2.57416 h -0.490579 v -0.333483 h 1.2733 v 0.333483 h -0.421677 z"
       style="font-style:normal;font-variant:normal;font-weight:bold;font-stretch:normal;font-family:serif;-inkscape-font-specification:'serif Bold';fill:#050505;fill-opacity:1;stroke-width:0.117592"
       id="path909" />
  </g>
</svg>
