<?xml version="1.0" encoding="UTF-8"?>
<svg width="76.006mm" height="17.772mm" version="1.1" viewBox="0 0 76.006 17.772" xmlns="http://www.w3.org/2000/svg"><g transform="translate(.49107 -.00077)" fill="#050505" stroke-width=".11759" aria-label="B"><path d="m-0.49099 17.698v-0.33348h0.52641v-3.4478h-0.52641v-0.33348h2.4391q0.7524 0 1.13 0.25356 0.37758 0.25356 0.37758 0.76343 0 0.36656-0.26183 0.58153-0.25907 0.21497-0.7717 0.27009 0.62011 0.05788 0.95084 0.33073 0.33073 0.27285 0.33073 0.72484 0 0.61184-0.46302 0.90123-0.46026 0.28939-1.4442 0.28939zm1.5875-2.3978h0.36104q0.47404 0 0.7028-0.17088 0.22875-0.17363 0.22875-0.52916 0-0.35829-0.22324-0.5209-0.22048-0.16261-0.70831-0.16261h-0.36104zm0 2.0643h0.39412q0.52641 0 0.77996-0.20946 0.25356-0.20946 0.25356-0.64767 0-0.44097-0.25631-0.6587-0.25631-0.21773-0.77721-0.21773h-0.39412z" fill="#050505" stroke-width=".11759"/></g><g transform="translate(-9.6199 -132.27)" fill="#000d1d" stroke-width=".26458"><g transform="translate(9.549 -193.83)" aria-label="BSW"><path d="m0.070943 335.52v-0.75034h1.1844v-7.7577h-1.1844v-0.75034h5.488q1.6929 0 2.5425 0.57051 0.84956 0.5705 0.84956 1.7177 0 0.82476-0.58911 1.3084-0.58291 0.48369-1.7363 0.60771 1.3953 0.13023 2.1394 0.74414 0.74414 0.61392 0.74414 1.6309 0 1.3767-1.0418 2.0278-1.0356 0.65113-3.2494 0.65113zm3.5719-5.395h0.81235q1.0666 0 1.5813-0.38447 0.5147-0.39068 0.5147-1.1906 0-0.80615-0.50229-1.172-0.49609-0.36587-1.5937-0.36587h-0.81235zm0 4.6447h0.88677q1.1844 0 1.7549-0.47129t0.57051-1.4573q0-0.99219-0.57671-1.4821-0.57671-0.48989-1.7487-0.48989h-0.88677z"/><path d="m11.196 335.08v-2.1952h0.78755q0.17983 1.0418 0.84956 1.5565t1.8542 0.5147q0.96118 0 1.4635-0.36587t0.5023-1.0728q0-0.55811-0.34106-0.86817t-1.4077-0.57671l-1.3891-0.34106q-1.3581-0.34727-1.91-0.96118-0.5519-0.62012-0.5519-1.7611 0-1.3767 0.91157-2.1394 0.91777-0.76894 2.5673-0.76894 0.81235 0 1.6867 0.13642 0.88057 0.13643 1.8231 0.40928v2.0464h-0.78755q-0.17983-0.95498-0.78755-1.3953-0.60772-0.44648-1.7301-0.44648-0.91777 0-1.3891 0.32246-0.46509 0.31626-0.46509 0.94878 0 0.57671 0.32246 0.88056 0.32246 0.29766 1.5813 0.62012l1.3891 0.34107q1.2898 0.32246 1.8666 1.0046 0.58291 0.68212 0.58291 1.879 0 1.4015-0.96738 2.1332-0.96738 0.72554-2.8463 0.72554-0.90537 0-1.7983-0.15503-0.89297-0.15503-1.8169-0.47129z"/><path d="m30.215 335.52h-1.5999l-2.096-6.7407-2.096 6.7407h-1.5999l-2.6417-8.508h-0.89917v-0.75034h4.3904v0.75034h-0.99219l1.7673 5.6865 1.9968-6.4368h1.7611l2.034 6.5422 1.8045-5.7919h-1.1038v-0.75034h2.8649v0.75034h-0.94878z"/></g><g transform="translate(10.324,-193.83)" aria-label="Brain Stimulated Wellness"><path d="m6.319 340.85v0.73312h-0.29214q-0.01378-0.21773-0.12127-0.32522-0.10749-0.10748-0.31419-0.10748-0.37483 0-0.57602 0.25907-0.19844 0.25907-0.19844 0.74414v1.3394h0.58704v0.29214h-1.5517v-0.29214h0.45751v-2.3482h-0.48507v-0.28938h0.99219v0.52089q0.14883-0.30592 0.38309-0.45199 0.23427-0.14883 0.57051-0.14883 0.12402 0 0.25907 0.0193 0.1378 0.0193 0.28939 0.0551z"/><path d="m8.5679 342.87v-0.62011h-0.65319q-0.37758 0-0.56224 0.16261-0.18466 0.1626-0.18466 0.49884 0 0.30593 0.18741 0.48507 0.18741 0.17915 0.50712 0.17915 0.31695 0 0.50987-0.19568 0.19568-0.19568 0.19568-0.50988zm0.50712-0.9095v1.5379h0.452v0.29214h-0.95911v-0.31695q-0.16812 0.20395-0.38861 0.30042-0.22049 0.0965-0.51539 0.0965-0.48783 0-0.77446-0.25907t-0.28663-0.70005q0-0.45475 0.32797-0.70555t0.92604-0.2508h0.71107v-0.2012q0-0.33348-0.20395-0.51538-0.20119-0.18466-0.56775-0.18466-0.30317 0-0.48231 0.1378-0.17914 0.13781-0.22324 0.4079h-0.26183v-0.59255q0.26458-0.113 0.51263-0.16812 0.2508-0.0579 0.48783-0.0579 0.60909 0 0.92604 0.30317 0.3197 0.30041 0.3197 0.87643z"/><path d="m10.233 339.95q0-0.12678 0.09095-0.22048 0.09371-0.0937 0.22324-0.0937 0.12678 0 0.21773 0.0937 0.09371 0.0937 0.09371 0.22048 0 0.12954-0.09095 0.22049-0.09095 0.0909-0.22049 0.0909t-0.22324-0.0909q-0.09095-0.091-0.09095-0.22049zm0.64768 3.5471h0.47956v0.29214h-1.4717v-0.29214h0.48507v-2.3427h-0.48507v-0.2949h0.99219z"/><path d="m11.724 343.79v-0.29214h0.45751v-2.3427h-0.48507v-0.2949h0.99219v0.52089q0.14056-0.29765 0.3638-0.44924 0.226-0.15158 0.52365-0.15158 0.48507 0 0.71382 0.27836 0.22875 0.27837 0.22875 0.86817v1.571h0.452v0.29214h-1.4001v-0.29214h0.43822v-1.4111q0-0.53744-0.13229-0.73587-0.13229-0.2012-0.46578-0.2012-0.35278 0-0.53744 0.25907-0.18466 0.25632-0.18466 0.74966v1.3394h0.44097v0.29214z"/><path d="m21.406 341.15h-0.44648v-0.2949h0.44648v-0.90951h0.50987v0.90951h0.9536v0.2949h-0.9536v1.8604q0 0.37207 0.07166 0.4768t0.26458 0.10473q0.19844 0 0.28939-0.11576 0.09095-0.11851 0.09646-0.38034h0.38309q-0.02205 0.39963-0.21773 0.58429t-0.59531 0.18466q-0.43822 0-0.62012-0.19293-0.1819-0.19568-0.1819-0.66145z"/><path d="m23.616 339.95q0-0.12678 0.09095-0.22048 0.09371-0.0937 0.22324-0.0937 0.12678 0 0.21773 0.0937 0.09371 0.0937 0.09371 0.22048 0 0.12954-0.09095 0.22049-0.09095 0.0909-0.22049 0.0909t-0.22324-0.0909q-0.09095-0.091-0.09095-0.22049zm0.64768 3.5471h0.47956v0.29214h-1.4717v-0.29214h0.48507v-2.3427h-0.48507v-0.2949h0.99219z"/><path d="m27.8 341.43q0.14607-0.32246 0.37207-0.48507 0.22876-0.16536 0.53192-0.16536 0.46026 0 0.68626 0.28663 0.226 0.28388 0.226 0.8599v1.571h0.45751v0.29214h-1.4056v-0.29214h0.44097v-1.5131q0-0.44924-0.13229-0.63941-0.13229-0.19016-0.43822-0.19016-0.339 0-0.51814 0.25631-0.17639 0.25632-0.17639 0.7469v1.3394h0.44097v0.29214h-1.3891v-0.29214h0.44097v-1.5324q0-0.43821-0.13229-0.62287-0.13229-0.18741-0.43822-0.18741-0.339 0-0.51814 0.25631-0.17639 0.25632-0.17639 0.7469v1.3394h0.44097v0.29214h-1.4056v-0.29214h0.45751v-2.3482h-0.48507v-0.28938h0.99219v0.52089q0.14056-0.29214 0.35829-0.44648t0.49334-0.15434q0.34175 0 0.57051 0.17088 0.22875 0.16812 0.30592 0.47955z"/><path d="m32.232 340.86h0.94809v2.6376h0.47956v0.29214h-0.98668v-0.51814q-0.14056 0.29214-0.3638 0.44648-0.22324 0.15159-0.51814 0.15159-0.48783 0-0.71934-0.27561-0.22875-0.27836-0.22875-0.87092v-1.5682h-0.45751v-0.2949h0.96738v1.706q0 0.53467 0.12954 0.73311 0.13229 0.19844 0.46853 0.19844 0.35278 0 0.53743-0.25907t0.18466-0.75241v-1.3312h-0.44097z"/><path d="m35.029 343.5h0.47956v0.29214h-1.4745v-0.29214h0.48782v-3.7042h-0.48782v-0.29214h0.99494z"/><path d="m37.926 342.87v-0.62011h-0.65319q-0.37758 0-0.56224 0.16261-0.18466 0.1626-0.18466 0.49884 0 0.30593 0.18741 0.48507 0.18741 0.17915 0.50712 0.17915 0.31695 0 0.50987-0.19568 0.19568-0.19568 0.19568-0.50988zm0.50712-0.9095v1.5379h0.452v0.29214h-0.95911v-0.31695q-0.16812 0.20395-0.38861 0.30042-0.22049 0.0965-0.51539 0.0965-0.48782 0-0.77446-0.25907t-0.28663-0.70005q0-0.45475 0.32797-0.70555t0.92604-0.2508h0.71107v-0.2012q0-0.33348-0.20395-0.51538-0.20119-0.18466-0.56775-0.18466-0.30317 0-0.48231 0.1378-0.17914 0.13781-0.22324 0.4079h-0.26183v-0.59255q0.26458-0.113 0.51263-0.16812 0.2508-0.0579 0.48782-0.0579 0.60909 0 0.92604 0.30317 0.3197 0.30041 0.3197 0.87643z"/><path d="m39.651 341.15h-0.44648v-0.2949h0.44648v-0.90951h0.50987v0.90951h0.9536v0.2949h-0.9536v1.8604q0 0.37207 0.07166 0.4768t0.26458 0.10473q0.19844 0 0.28939-0.11576 0.09095-0.11851 0.09646-0.38034h0.38309q-0.02205 0.39963-0.21773 0.58429t-0.59531 0.18466q-0.43822 0-0.62012-0.19293-0.1819-0.19568-0.1819-0.66145z"/><path d="m44.372 342.38h-2.1856v0.022q0 0.59256 0.22324 0.89573 0.22324 0.30041 0.6587 0.30041 0.33348 0 0.5457-0.17364 0.21497-0.17638 0.30041-0.52089h0.4079q-0.12127 0.48231-0.44924 0.72484-0.32522 0.24254-0.85714 0.24254-0.64217 0-1.0335-0.42168-0.38861-0.42444-0.38861-1.1245 0-0.69453 0.3831-1.119 0.38309-0.42443 1.006-0.42443 0.66421 0 1.0197 0.41065 0.35553 0.4079 0.36931 1.1879zm-0.59807-0.29214q-0.01654-0.51263-0.21773-0.7717-0.19844-0.26183-0.57326-0.26183-0.35002 0-0.55122 0.26183-0.20119 0.26182-0.24529 0.7717z"/><path d="m47.616 343.5h0.48507v0.29214h-0.99219v-0.45751q-0.14883 0.27561-0.38034 0.4079-0.22875 0.12954-0.56775 0.12954-0.54019 0-0.8847-0.42719-0.34175-0.42995-0.34175-1.119t0.34175-1.1162 0.8847-0.42719q0.339 0 0.56775 0.13229 0.23151 0.12954 0.38034 0.40514v-1.5241h-0.47956v-0.29214h0.98667zm-0.50712-1.028v-0.28938q0-0.52642-0.20395-0.80478-0.20119-0.27836-0.58704-0.27836-0.39136 0-0.59256 0.30868-0.19844 0.30868-0.19844 0.91777 0 0.60634 0.19844 0.91777 0.20119 0.31144 0.59256 0.31144 0.38585 0 0.58704-0.27561 0.20395-0.27836 0.20395-0.80753z"/><path d="m58.92 342.38h-2.1856v0.022q0 0.59256 0.22324 0.89573 0.22324 0.30041 0.6587 0.30041 0.33348 0 0.5457-0.17364 0.21497-0.17638 0.30041-0.52089h0.4079q-0.12127 0.48231-0.44924 0.72484-0.32522 0.24254-0.85714 0.24254-0.64216 0-1.0335-0.42168-0.38861-0.42444-0.38861-1.1245 0-0.69453 0.38309-1.119 0.38309-0.42443 1.006-0.42443 0.66421 0 1.0197 0.41065 0.35553 0.4079 0.36931 1.1879zm-0.59807-0.29214q-0.01654-0.51263-0.21773-0.7717-0.19844-0.26183-0.57326-0.26183-0.35002 0-0.55122 0.26183-0.20119 0.26182-0.24529 0.7717z"/><path d="m60.359 343.5h0.47956v0.29214h-1.4745v-0.29214h0.48782v-3.7042h-0.48782v-0.29214h0.99494z"/><path d="m62.167 343.5h0.47956v0.29214h-1.4745v-0.29214h0.48782v-3.7042h-0.48782v-0.29214h0.99494z"/><path d="m63.049 343.79v-0.29214h0.45751v-2.3427h-0.48507v-0.2949h0.99219v0.52089q0.14056-0.29765 0.3638-0.44924 0.226-0.15158 0.52365-0.15158 0.48507 0 0.71382 0.27836 0.22875 0.27837 0.22875 0.86817v1.571h0.452v0.29214h-1.4001v-0.29214h0.43822v-1.4111q0-0.53744-0.13229-0.73587-0.13229-0.2012-0.46578-0.2012-0.35278 0-0.53744 0.25907-0.18466 0.25632-0.18466 0.74966v1.3394h0.44097v0.29214z"/><path d="m69.514 342.38h-2.1856v0.022q0 0.59256 0.22324 0.89573 0.22324 0.30041 0.6587 0.30041 0.33348 0 0.5457-0.17364 0.21497-0.17638 0.30041-0.52089h0.4079q-0.12127 0.48231-0.44924 0.72484-0.32522 0.24254-0.85714 0.24254-0.64216 0-1.0335-0.42168-0.38861-0.42444-0.38861-1.1245 0-0.69453 0.38309-1.119 0.38309-0.42443 1.006-0.42443 0.66421 0 1.0197 0.41065 0.35553 0.4079 0.36931 1.1879zm-0.59807-0.29214q-0.01654-0.51263-0.21773-0.7717-0.19844-0.26183-0.57326-0.26183-0.35002 0-0.55122 0.26183-0.20119 0.26182-0.24529 0.7717z"/><path d="m70.113 343.63v-0.6835h0.29214q0.01102 0.32797 0.20395 0.49058 0.19568 0.16261 0.57602 0.16261 0.34175 0 0.5209-0.12678 0.17914-0.12954 0.17914-0.37483 0-0.19292-0.13229-0.31143-0.12954-0.11852-0.55122-0.25356l-0.36656-0.12403q-0.37758-0.12126-0.54846-0.30316-0.16812-0.18191-0.16812-0.46303 0-0.40238 0.2949-0.63114 0.2949-0.22875 0.8158-0.22875 0.23151 0 0.48782 0.0606t0.52917 0.17639v0.63941h-0.29214q-0.01103-0.28387-0.19844-0.44373-0.18741-0.15985-0.50987-0.15985-0.3197 0-0.48507 0.113-0.16261 0.113-0.16261 0.339 0 0.18465 0.12402 0.29765 0.12402 0.11025 0.49609 0.226l0.40239 0.12402q0.41617 0.12954 0.59807 0.32522 0.18466 0.19293 0.18466 0.49885 0 0.41617-0.3197 0.65595-0.31695 0.23702-0.87643 0.23702-0.28388 0-0.55397-0.0606-0.2701-0.0606-0.54019-0.18191z"/><path d="m73.012 343.63v-0.6835h0.29214q0.01102 0.32797 0.20395 0.49058 0.19568 0.16261 0.57602 0.16261 0.34175 0 0.5209-0.12678 0.17914-0.12954 0.17914-0.37483 0-0.19292-0.13229-0.31143-0.12954-0.11852-0.55121-0.25356l-0.36656-0.12403q-0.37758-0.12126-0.54846-0.30316-0.16812-0.18191-0.16812-0.46303 0-0.40238 0.2949-0.63114 0.2949-0.22875 0.8158-0.22875 0.23151 0 0.48783 0.0606 0.25631 0.0606 0.52917 0.17639v0.63941h-0.29214q-0.01102-0.28387-0.19844-0.44373-0.18741-0.15985-0.50987-0.15985-0.3197 0-0.48507 0.113-0.16261 0.113-0.16261 0.339 0 0.18465 0.12402 0.29765 0.12402 0.11025 0.49609 0.226l0.40239 0.12402q0.41617 0.12954 0.59807 0.32522 0.18466 0.19293 0.18466 0.49885 0 0.41617-0.3197 0.65595-0.31695 0.23702-0.87643 0.23702-0.28388 0-0.55397-0.0606t-0.54019-0.18191z"/></g></g><g transform="translate(.49107 -.00077)" fill="#050505" stroke-width=".11759" aria-label="S"><path d="m17.423 17.476v-0.97564h0.35002q0.07993 0.46302 0.37758 0.69177 0.29766 0.22875 0.82406 0.22875 0.42719 0 0.65043-0.16261 0.22324-0.16261 0.22324-0.4768 0-0.24805-0.15158-0.38585-0.15158-0.1378-0.62563-0.25631l-0.61736-0.15158q-0.60358-0.15434-0.84887-0.42719-0.24529-0.27561-0.24529-0.78272 0-0.61185 0.40514-0.95084 0.4079-0.34175 1.141-0.34175 0.36104 0 0.74965 0.06063 0.39136 0.06063 0.81028 0.1819v0.9095h-0.35002q-0.07993-0.42443-0.35002-0.62011-0.27009-0.19844-0.76894-0.19844-0.4079 0-0.61736 0.14332-0.2067 0.14056-0.2067 0.42168 0 0.25631 0.14332 0.39136 0.14332 0.13229 0.7028 0.27561l0.61736 0.15158q0.57326 0.14332 0.82957 0.44648 0.25907 0.30317 0.25907 0.83509 0 0.62287-0.42994 0.94808-0.42995 0.32246-1.265 0.32246-0.40238 0-0.79926-0.0689-0.39687-0.0689-0.80752-0.20946z" fill="#050505" stroke-width=".11759"/></g><g transform="translate(.67082 -.00077)" fill="#050505" stroke-width=".11759" aria-label="W"><path d="m54.765 17.709h-0.71106l-0.93155-2.9958-0.93155 2.9958h-0.71106l-1.1741-3.7813h-0.39963v-0.33348h1.9513v0.33348h-0.44097l0.78548 2.5273 0.88745-2.8608h0.78272l0.90399 2.9076 0.80201-2.5742h-0.49058v-0.33348h1.2733v0.33348h-0.42168z" fill="#050505" stroke-width=".11759"/></g></svg>
